<svg width="1200" height="360" viewBox="0 0 1200 360" fill="none" xmlns="http://www.w3.org/2000/svg">
<rect width="1200" height="360" rx="58" fill="#0B1020"/>
<path d="M107 222C107 156 160 103 226 103H284C333 103 373 143 373 192V253H321V196C321 175 304 158 283 158H230C191 158 159 190 159 229V253H107V222Z" fill="#00C2FF"/>
<path d="M190 207H292V253H190V207Z" fill="#77F6C7"/>
<path d="M422 103H558C611 103 654 146 654 199C654 252 611 295 558 295H493V253H556C586 253 610 229 610 199C610 169 586 145 556 145H474V295H422V103Z" fill="#F8FAFC"/>
<path d="M686 103H822C875 103 918 146 918 199C918 252 875 295 822 295H757V253H820C850 253 874 229 874 199C874 169 850 145 820 145H738V295H686V103Z" fill="#F8FAFC"/>
<circle cx="964" cy="270" r="25" fill="#16A34A"/>
<path d="M1015 103H1068L1138 295H1084L1072 258H1009L997 295H944L1015 103ZM1022 218H1059L1041 160L1022 218Z" fill="#F8FAFC"/>
<path d="M1155 103H1207V295H1155V103Z" fill="#00C2FF"/>
<path d="M91 75H1110" stroke="#1D4ED8" stroke-width="6" stroke-linecap="round" opacity=".45"/>
</svg>